<svg width="63" height="25" viewBox="0 0 63 25" fill="none" xmlns="http://www.w3.org/2000/svg">
<path fill-rule="evenodd" clip-rule="evenodd" d="M60.1483 9.61085V7.1934C60.3848 7.72406 60.917 9.19811 61.0943 9.61085H61.5083L62.3952 7.1934L62.4543 9.61085H62.9865V6.13208H62.1587L61.3309 8.72641C61.0943 8.13679 60.6804 6.89858 60.3848 6.13208H59.6752L59.6161 9.61085H60.1483ZM31.1157 9.90566C30.9384 10.3774 30.4653 10.908 30.1697 11.3797C29.7558 11.9104 27.568 15.4481 27.0949 15.7429V9.90566H19.9403V24.5283H27.0949V17.4528C27.3906 17.7476 28.8097 20.4599 29.1645 21.1085L31.1157 24.5283H39.3939C38.6252 23.1132 34.5452 16.8632 34.3087 16.3915L39.2165 9.90566H31.1157ZM27.0949 8.31368V3.47877H19.9403V8.31368H27.0949ZM50.7467 18.4552C50.5102 21.5212 48.7363 20.8137 48.2633 20.283C47.5537 19.3396 47.3763 14.9764 48.4407 14.092C48.9728 13.6203 49.8006 13.6792 50.2145 14.1509C50.9241 14.9764 50.865 17.217 50.7467 18.4552ZM47.4355 2.53538C47.7902 4.89387 50.5693 4.89387 49.6824 7.07547C49.2685 6.48585 49.505 6.07311 48.2041 5.01179C47.9085 4.77594 47.5537 4.48113 47.3763 4.0684C47.1989 3.77358 47.0807 3.24292 47.1989 2.88915C47.3172 2.6533 47.3763 2.6533 47.4355 2.53538ZM49.1502 2.41745C49.505 3.71462 49.7415 4.0684 50.5693 4.65802C51.2789 5.18868 51.8702 5.83726 51.3971 7.13443C51.3971 7.07547 51.3971 7.01651 51.3971 7.01651L51.338 6.89858C51.338 6.83962 51.2789 6.83962 51.2789 6.83962C51.2197 6.66274 51.2197 6.54481 51.1606 6.42689C50.5693 5.07075 48.145 4.36321 49.1502 2.41745ZM46.7259 8.49057L47.672 9.55189H47.6128C47.5537 9.61085 47.5537 9.61085 47.4946 9.61085C47.4355 9.61085 47.1989 9.66981 47.0807 9.66981C45.5433 9.90566 43.3555 10.6722 42.3503 11.7335C40.8721 13.3255 40.0443 14.6816 40.0443 17.2759C40.1034 22.5825 44.1242 25 49.3867 25C54.2945 25 58.4335 22.4057 58.4335 17.5708C58.4335 15.0943 57.9605 13.6203 56.364 11.9693C55.1814 10.7311 53.644 10.0825 51.5154 9.66981C52.4023 8.60849 54.2353 7.31132 51.9884 5.3066C51.5154 4.89387 50.6284 4.24528 50.6284 3.18396C50.6876 2.06368 51.7519 1.70991 52.0476 1.12028C51.5745 0.825472 51.1015 0.235849 50.6876 0C50.5102 0.235849 50.0371 0.589623 49.8006 0.707547L49.1502 0C48.6772 0.176887 48.4998 0.412736 48.2633 0.707547L47.3172 0C45.9572 0.707547 44.952 2.83019 46.6668 4.30424C49.5641 6.83962 47.5537 7.13443 46.7259 8.49057ZM17.1021 24.5283C17.1021 24.4693 17.1021 24.4104 17.1612 24.2925V10.7901C17.1021 10.3184 17.1021 9.96462 17.0429 9.90566H9.94741L10.0065 24.5283H17.1021ZM7.16833 24.5283V9.90566H0.0136719V24.5283H7.16833ZM16.9838 8.31368L17.0429 8.25472C17.1021 8.19576 17.1021 8.13679 17.1612 7.95991V3.47877H9.94741L10.0065 8.31368H16.9838ZM7.16833 8.31368V3.47877H0.0136719V8.31368H7.16833ZM56.364 6.60377L57.4875 6.66274V9.61085H58.0787V6.78066V6.66274L59.2022 6.60377V6.13208H56.364V6.60377Z" fill="#FF5050"/>
</svg>
