<svg width="91" height="20" viewBox="0 0 91 20" fill="none" xmlns="http://www.w3.org/2000/svg">
<mask id="mask0_1_447" style="mask-type:luminance" maskUnits="userSpaceOnUse" x="0" y="0" width="91" height="20">
<path d="M91 0.277344H0V19.7368H91V0.277344Z" fill="white"/>
</mask>
<g mask="url(#mask0_1_447)">
<path d="M6.82245 4.47656V6.95062C6.58712 6.90851 6.37361 6.88802 6.18223 6.88802C5.10735 6.88802 4.26854 7.18278 3.66463 7.77154C3.06111 8.361 2.75975 9.20959 2.75975 10.318V15.7028H0V4.60136H1.34764L2.6276 6.22267C3.42249 5.05809 4.8209 4.47656 6.82245 4.47656Z" fill="white"/>
<path d="M18.2129 15.7033H15.4531V3.73845L18.2129 0.277344V15.7033Z" fill="white"/>
<path d="M38.869 10.9842H29.6176C29.7791 11.8016 30.203 12.4492 30.8871 12.9275C31.5712 13.4055 32.4217 13.6449 33.4377 13.6449C34.7326 13.6449 35.7998 13.2432 36.6386 12.4389L38.0093 14.1585C37.4791 14.7545 36.9182 15.0863 36.1092 15.391C35.2991 15.6963 34.3873 15.8485 33.3712 15.8485C32.0756 15.8485 30.9346 15.6061 29.9488 15.1213C28.9625 14.6361 28.2007 13.9605 27.6636 13.0941C27.1258 12.2276 26.8574 11.2474 26.8574 10.1519C26.8574 9.07078 27.1189 8.09737 27.641 7.23132C28.1636 6.36494 28.8892 5.68932 29.8162 5.20414C30.7437 4.71934 31.7891 4.47656 32.9514 4.47656C34.1001 4.47656 35.1262 4.71555 36.0315 5.19351C36.9372 5.67224 37.6438 6.34445 38.1515 7.21045C38.6591 8.07689 38.9133 9.07835 38.9133 10.2145C38.9137 10.3943 38.898 10.6507 38.869 10.9842ZM30.711 7.29354C30.0998 7.78591 29.7284 8.44029 29.5954 9.25781H36.2861C36.1681 8.45472 35.8079 7.80262 35.2044 7.30418C34.6 6.80494 33.8499 6.555 32.9519 6.555C32.0683 6.55462 31.3214 6.80116 30.711 7.29354Z" fill="white"/>
<path d="M52.6028 10.9842H43.3514C43.5125 11.8016 43.9363 12.4492 44.6205 12.9275C45.3053 13.4055 46.1555 13.6449 47.1711 13.6449C48.466 13.6449 49.5332 13.2432 50.3728 12.4389L51.7132 14.1706C51.1834 14.7666 50.6524 15.0863 49.8426 15.391C49.0332 15.6963 48.1207 15.8485 47.1046 15.8485C45.8094 15.8485 44.668 15.6061 43.6825 15.1213C42.6959 14.6361 41.9341 13.9605 41.397 13.0941C40.8599 12.2276 40.5908 11.2474 40.5908 10.1519C40.5908 9.07078 40.8527 8.09737 41.3753 7.23132C41.897 6.36494 42.6226 5.68932 43.5496 5.20414C44.4775 4.71934 45.5225 4.47656 46.6848 4.47656C47.8335 4.47656 48.86 4.71555 49.7657 5.19351C50.6706 5.67224 51.3772 6.34445 51.8849 7.21045C52.3933 8.07689 52.6467 9.07835 52.6467 10.2145C52.6467 10.3943 52.6322 10.6507 52.6028 10.9842ZM44.444 7.29354C43.8333 7.78591 43.4622 8.44029 43.3293 9.25781H50.0199C49.9015 8.45472 49.5409 7.80262 48.9374 7.30418C48.3334 6.80494 47.5829 6.555 46.6848 6.555C45.8017 6.55462 45.0548 6.80116 44.444 7.29354Z" fill="white"/>
<path d="M64.9127 5.18289C65.8183 5.6544 66.5286 6.32018 67.0435 7.17899C67.5584 8.03856 67.8164 9.02905 67.8164 10.1523C67.8164 11.2743 67.5584 12.2694 67.0435 13.1354C66.5286 14.0018 65.8183 14.6702 64.9127 15.1418C64.0072 15.6125 62.9807 15.8485 61.8326 15.8485C60.2429 15.8485 58.9839 15.3496 58.0572 14.352V19.7363H55.2969V4.60136H56.826L57.9246 6.05613C58.3807 5.52959 58.9434 5.13472 59.6137 4.87108C60.2828 4.60857 61.0236 4.47656 61.8326 4.47656C62.9807 4.47656 64.0072 4.71213 64.9127 5.18289ZM64.0299 12.6677C64.6847 12.0308 65.0126 11.1913 65.0126 10.1523C65.0126 9.11289 64.6847 8.27413 64.0299 7.63645C63.3741 6.99878 62.5384 6.67975 61.5236 6.67975C60.8616 6.67975 60.2645 6.82278 59.7352 7.10651C59.2053 7.39067 58.7852 7.79618 58.4762 8.3231C58.1677 8.84959 58.0128 9.45921 58.0128 10.1523C58.0128 10.8449 58.1677 11.4549 58.4762 11.9814C58.7852 12.508 59.2053 12.9135 59.7352 13.198C60.2645 13.4821 60.8616 13.6244 61.5236 13.6244C62.5384 13.6244 63.3741 13.3054 64.0299 12.6677Z" fill="white"/>
<path d="M81.4837 10.9842H72.2316C72.3937 11.8016 72.817 12.4492 73.5012 12.9275C74.1854 13.4055 75.0366 13.6449 76.052 13.6449C77.3471 13.6449 78.4141 13.2432 79.2531 12.4389L80.6136 14.1524C80.0832 14.7483 79.5333 15.0863 78.7232 15.391C77.9136 15.6963 77.0019 15.8485 75.9854 15.8485C74.6897 15.8485 73.5489 15.6061 72.5629 15.1213C71.5763 14.6361 70.815 13.9605 70.2779 13.0941C69.7402 12.2276 69.4717 11.2474 69.4717 10.1519C69.4717 9.07078 69.733 8.09737 70.2563 7.23132C70.7779 6.36494 71.5036 5.68932 72.4303 5.20414C73.358 4.71934 74.4029 4.47656 75.5659 4.47656C76.7145 4.47656 77.741 4.71555 78.646 5.19351C79.5516 5.67224 80.258 6.34445 80.7657 7.21045C81.2734 8.07689 81.5275 9.07835 81.5275 10.2145C81.5275 10.3943 81.5131 10.6507 81.4837 10.9842ZM73.3247 7.29354C72.7138 7.78591 72.3421 8.44029 72.21 9.25781H78.9002C78.782 8.45472 78.4219 7.80262 77.8182 7.30418C77.2144 6.80494 76.4631 6.555 75.5659 6.555C74.6825 6.55462 73.9357 6.80116 73.3247 7.29354Z" fill="white"/>
<path d="M91.0001 4.47656V6.95062C90.7637 6.90851 90.5506 6.88802 90.3592 6.88802C89.285 6.88802 88.446 7.18278 87.8423 7.77154C87.2386 8.361 86.9367 9.20959 86.9367 10.318V15.7028H84.1768V4.60136H85.5501L86.8047 6.22267C87.5992 5.05809 88.9975 4.47656 91.0001 4.47656Z" fill="white"/>
<path d="M26.0121 15.7021L21.5031 10.0185L25.8756 4.57946L23.2346 4.55859L18.8477 10.0151L18.865 10.0272L23.3511 15.682L26.0121 15.7021Z" fill="white"/>
<path d="M16.6034 17.7091H4.24219L5.85007 15.7031H18.2114L16.6034 17.7091Z" fill="#00CF6F"/>
</g>
</svg>
