<svg width="42" height="18" viewBox="0 0 42 18" fill="none" xmlns="http://www.w3.org/2000/svg">
<path fill-rule="evenodd" clip-rule="evenodd" d="M39.3707 7.20707V5.63381C39.524 5.97916 39.8691 6.93847 39.9841 7.20707H40.2524L40.8275 5.63381L40.8658 7.20707H41.2109V4.94311H40.6741L40.1374 6.63149C39.9841 6.24777 39.7157 5.44195 39.524 4.94311H39.064L39.0257 7.20707H39.3707ZM20.5474 7.39893C20.4324 7.70591 20.1257 8.05126 19.934 8.35824C19.6657 8.70359 18.2472 11.0059 17.9405 11.1978V7.39893H13.3018V16.9153H17.9405V12.3106C18.1322 12.5024 19.0523 14.2676 19.2823 14.6897L20.5474 16.9153H25.9145C25.4162 15.9943 22.7709 11.9269 22.6176 11.6199L25.7995 7.39893H20.5474ZM17.9405 6.36288V3.21636H13.3018V6.36288H17.9405ZM33.2752 12.9629C33.1218 14.9583 31.9717 14.4978 31.665 14.1525C31.205 13.5385 31.09 10.6989 31.78 10.1234C32.1251 9.81639 32.6618 9.85476 32.9301 10.1617C33.3902 10.6989 33.3518 12.1571 33.2752 12.9629ZM31.1283 2.6024C31.3583 4.13729 33.1602 4.13729 32.5851 5.55707C32.3167 5.17334 32.4701 4.90474 31.6267 4.21404C31.435 4.06055 31.205 3.86869 31.09 3.60008C30.975 3.40822 30.8983 3.06287 30.975 2.83263C31.0516 2.67914 31.09 2.67914 31.1283 2.6024ZM32.2401 2.52566C32.4701 3.36985 32.6234 3.60008 33.1602 3.9838C33.6202 4.32915 34.0036 4.75125 33.6969 5.59544C33.6969 5.55707 33.6969 5.51869 33.6969 5.51869L33.6585 5.44195C33.6585 5.40358 33.6202 5.40358 33.6202 5.40358C33.5819 5.28846 33.5819 5.21171 33.5435 5.13497C33.1602 4.25241 31.5884 3.79194 32.2401 2.52566ZM30.6683 6.478L31.2817 7.1687H31.2433C31.205 7.20707 31.205 7.20707 31.1667 7.20707C31.1283 7.20707 30.975 7.24544 30.8983 7.24544C29.9015 7.39893 28.4831 7.89777 27.8314 8.58847C26.8729 9.62453 26.3362 10.5071 26.3362 12.1955C26.3746 15.649 28.9815 17.2222 32.3934 17.2222C35.5754 17.2222 38.2589 15.5339 38.2589 12.3873C38.2589 10.7757 37.9522 9.81639 36.9171 8.74196C36.1504 7.93615 35.1537 7.51405 33.7735 7.24544C34.3486 6.55474 35.537 5.71055 34.0802 4.4059C33.7735 4.13729 33.1985 3.7152 33.1985 3.0245C33.2368 2.29542 33.9269 2.06519 34.1186 1.68147C33.8119 1.4896 33.5052 1.10588 33.2368 0.952393C33.1218 1.10588 32.8151 1.33612 32.6618 1.41286L32.2401 0.952393C31.9334 1.06751 31.8184 1.221 31.665 1.41286L31.0516 0.952393C30.1699 1.41286 29.5182 2.79426 30.6299 3.75357C32.5084 5.40358 31.205 5.59544 30.6683 6.478ZM11.4616 16.9153C11.4616 16.8769 11.4616 16.8385 11.5 16.7618V7.97452C11.4616 7.66754 11.4616 7.43731 11.4233 7.39893H6.82288L6.86122 16.9153H11.4616ZM5.02106 16.9153V7.39893H0.382324V16.9153H5.02106ZM11.3849 6.36288L11.4233 6.32451C11.4616 6.28614 11.4616 6.24777 11.5 6.13265V3.21636H6.82288L6.86122 6.36288H11.3849ZM5.02106 6.36288V3.21636H0.382324V6.36288H5.02106ZM36.9171 5.25009L37.6455 5.28846V7.20707H38.0289V5.3652V5.28846L38.7573 5.25009V4.94311H36.9171V5.25009Z" fill="#FF5050"/>
</svg>
