<svg width="59" height="13" viewBox="0 0 59 13" fill="none" xmlns="http://www.w3.org/2000/svg">
<mask id="mask0_136_655" style="mask-type:luminance" maskUnits="userSpaceOnUse" x="0" y="0" width="59" height="13">
<path d="M59 0.164612H0V12.8287H59V0.164612Z" fill="white"/>
</mask>
<g mask="url(#mask0_136_655)">
<path d="M4.42335 2.89746V4.50756C4.27077 4.48016 4.13234 4.46682 4.00826 4.46682C3.31136 4.46682 2.76752 4.65865 2.37597 5.04181C1.98467 5.42543 1.78929 5.97769 1.78929 6.69905V10.2034H0V2.97868H0.873747L1.70361 4.03382C2.21898 3.27592 3.12564 2.89746 4.42335 2.89746Z" fill="white"/>
<path d="M11.8083 10.2037H10.019V2.41708L11.8083 0.164612V10.2037Z" fill="white"/>
<path d="M25.2008 7.13258H19.2027C19.3074 7.66458 19.5822 8.08598 20.0257 8.3973C20.4692 8.70834 21.0207 8.86415 21.6794 8.86415C22.519 8.86415 23.2109 8.60271 23.7548 8.07933L24.6434 9.19841C24.2996 9.58625 23.936 9.80224 23.4115 10.0005C22.8862 10.1992 22.2951 10.2982 21.6363 10.2982C20.7963 10.2982 20.0565 10.1405 19.4174 9.82497C18.7779 9.50921 18.284 9.06952 17.9358 8.50568C17.5871 7.94182 17.4131 7.3039 17.4131 6.59094C17.4131 5.88735 17.5826 5.25386 17.9211 4.69024C18.26 4.12641 18.7304 3.68672 19.3314 3.37096C19.9327 3.05546 20.6106 2.89746 21.3641 2.89746C22.1089 2.89746 22.7742 3.05299 23.3611 3.36405C23.9483 3.6756 24.4065 4.11307 24.7356 4.67666C25.0647 5.24053 25.2295 5.89227 25.2295 6.63164C25.2298 6.74868 25.2196 6.91557 25.2008 7.13258ZM19.9116 4.73073C19.5153 5.05117 19.2745 5.47703 19.1883 6.00906H23.5262C23.4496 5.48642 23.2161 5.06204 22.8249 4.73766C22.433 4.41275 21.9467 4.25009 21.3644 4.25009C20.7916 4.24985 20.3073 4.41029 19.9116 4.73073Z" fill="white"/>
<path d="M34.1051 7.13258H28.107C28.2114 7.66458 28.4862 8.08598 28.9298 8.3973C29.3738 8.70834 29.925 8.86415 30.5835 8.86415C31.423 8.86415 32.115 8.60271 32.6593 8.07933L33.5284 9.20629C33.1849 9.59413 32.8406 9.80224 32.3156 10.0005C31.7908 10.1992 31.1992 10.2982 30.5404 10.2982C29.7006 10.2982 28.9606 10.1405 28.3217 9.82497C27.682 9.50921 27.188 9.06952 26.8398 8.50568C26.4916 7.94182 26.3171 7.3039 26.3171 6.59094C26.3171 5.88735 26.4869 5.25386 26.8257 4.69024C27.164 4.12641 27.6344 3.68672 28.2355 3.37096C28.8371 3.05546 29.5146 2.89746 30.2682 2.89746C31.0129 2.89746 31.6785 3.05299 32.2657 3.36405C32.8524 3.6756 33.3105 4.11307 33.6397 4.67666C33.9693 5.24053 34.1336 5.89227 34.1336 6.63164C34.1336 6.74868 34.1242 6.91557 34.1051 7.13258ZM28.8154 4.73073C28.4194 5.05117 28.1788 5.47703 28.0926 6.00906H32.4305C32.3537 5.48642 32.1199 5.06204 31.7286 4.73766C31.3371 4.41275 30.8505 4.25009 30.2682 4.25009C29.6956 4.24985 29.2113 4.41029 28.8154 4.73073Z" fill="white"/>
<path d="M42.0863 3.35714C42.6734 3.66399 43.1339 4.09728 43.4677 4.65619C43.8016 5.21559 43.9689 5.86019 43.9689 6.59119C43.9689 7.32142 43.8016 7.96897 43.4677 8.5326C43.1339 9.09643 42.6734 9.53144 42.0863 9.8383C41.4992 10.1447 40.8336 10.2982 40.0893 10.2982C39.0586 10.2982 38.2423 9.97359 37.6415 9.32431V12.8284H35.8518V2.97868H36.8432L37.5555 3.92543C37.8512 3.58276 38.216 3.32579 38.6506 3.15421C39.0845 2.98337 39.5647 2.89746 40.0893 2.89746C40.8336 2.89746 41.4992 3.05077 42.0863 3.35714ZM41.5139 8.2282C41.9384 7.8137 42.151 7.26735 42.151 6.59119C42.151 5.91475 41.9384 5.36889 41.5139 4.9539C41.0887 4.5389 40.5469 4.33128 39.8889 4.33128C39.4597 4.33128 39.0726 4.42436 38.7294 4.60901C38.3858 4.79394 38.1135 5.05785 37.9131 5.40077C37.7131 5.7434 37.6127 6.14014 37.6127 6.59119C37.6127 7.04196 37.7131 7.43895 37.9131 7.78158C38.1135 8.12425 38.3858 8.38815 38.7294 8.57333C39.0726 8.75823 39.4597 8.85082 39.8889 8.85082C40.5469 8.85082 41.0887 8.6432 41.5139 8.2282Z" fill="white"/>
<path d="M52.83 7.13258H46.8314C46.9365 7.66458 47.211 8.08598 47.6545 8.3973C48.0981 8.70834 48.65 8.86415 49.3083 8.86415C50.148 8.86415 50.8398 8.60271 51.3838 8.07933L52.2659 9.19443C51.922 9.58227 51.5654 9.80224 51.0402 10.0005C50.5153 10.1992 49.9242 10.2982 49.2652 10.2982C48.4251 10.2982 47.6855 10.1405 47.0462 9.82497C46.4065 9.50921 45.913 9.06952 45.5647 8.50568C45.2161 7.94182 45.042 7.3039 45.042 6.59094C45.042 5.88735 45.2114 5.25386 45.5507 4.69024C45.8889 4.12641 46.3594 3.68672 46.9602 3.37096C47.5617 3.05546 48.2391 2.89746 48.9932 2.89746C49.7379 2.89746 50.4034 3.05299 50.9902 3.36405C51.5773 3.6756 52.0353 4.11307 52.3645 4.67666C52.6936 5.24053 52.8584 5.89227 52.8584 6.63164C52.8584 6.74868 52.8491 6.91557 52.83 7.13258ZM47.5401 4.73073C47.144 5.05117 46.903 5.47703 46.8174 6.00906H51.155C51.0783 5.48642 50.8449 5.06204 50.4534 4.73766C50.062 4.41275 49.5749 4.25009 48.9932 4.25009C48.4205 4.24985 47.9362 4.41029 47.5401 4.73073Z" fill="white"/>
<path d="M59.0001 2.89746V4.50756C58.8468 4.48016 58.7087 4.46682 58.5846 4.46682C57.8881 4.46682 57.3441 4.65865 56.9527 5.04181C56.5613 5.42543 56.3656 5.97769 56.3656 6.69905V10.2034H54.5762V2.97868H55.4666L56.28 4.03382C56.7951 3.27592 57.7017 2.89746 59.0001 2.89746Z" fill="white"/>
<path d="M16.8651 10.203L13.9416 6.50406L16.7765 2.96438L15.0643 2.95081L12.22 6.50184L12.2312 6.50972L15.1398 10.1899L16.8651 10.203Z" fill="white"/>
<path d="M10.7649 11.5091H2.75049L3.79296 10.2036H11.8074L10.7649 11.5091Z" fill="#00CF6F"/>
</g>
</svg>
