<svg width="14" height="20" viewBox="0 0 14 20" fill="none" xmlns="http://www.w3.org/2000/svg">
<path fill-rule="evenodd" clip-rule="evenodd" d="M2.1516 8.61095C1.3368 8.61095 1.16675 8.77083 1.16675 9.53687V10.9258C1.16675 11.6918 1.3368 11.8517 2.1516 11.8517H4.12129V17.4072C4.12129 18.1733 4.29134 18.3332 5.10614 18.3332H7.07584C7.89064 18.3332 8.06069 18.1733 8.06069 17.4072V11.8517H10.2724C10.8903 11.8517 11.0496 11.7388 11.2193 11.1801L11.6414 9.79125C11.9322 8.8343 11.753 8.61095 10.6944 8.61095H8.06069V6.29613C8.06069 5.78476 8.50162 5.37021 9.04554 5.37021H11.8486C12.6634 5.37021 12.8334 5.21033 12.8334 4.44428V2.59243C12.8334 1.82638 12.6634 1.6665 11.8486 1.6665H9.04554C6.32595 1.6665 4.12129 3.73926 4.12129 6.29613V8.61095H2.1516Z" stroke="#626C7A" stroke-width="1.5" stroke-linejoin="round"/>
</svg>
