<svg width="18" height="18" viewBox="0 0 18 18" fill="none" xmlns="http://www.w3.org/2000/svg">
<path d="M1.08325 9.00016C1.08325 5.26821 1.08325 3.40223 2.24262 2.24287C3.40199 1.0835 5.26797 1.0835 8.99992 1.0835C12.7319 1.0835 14.5978 1.0835 15.7572 2.24287C16.9166 3.40223 16.9166 5.26821 16.9166 9.00016C16.9166 12.7321 16.9166 14.5981 15.7572 15.7575C14.5978 16.9168 12.7319 16.9168 8.99992 16.9168C5.26797 16.9168 3.40199 16.9168 2.24262 15.7575C1.08325 14.5981 1.08325 12.7321 1.08325 9.00016Z" stroke="#626C7A" stroke-width="1.5" stroke-linejoin="round"/>
<path d="M12.75 9C12.75 11.0711 11.0711 12.75 9 12.75C6.92893 12.75 5.25 11.0711 5.25 9C5.25 6.92893 6.92893 5.25 9 5.25C11.0711 5.25 12.75 6.92893 12.75 9Z" stroke="#626C7A" stroke-width="1.5"/>
<path d="M13.5898 4.41675L13.5824 4.41675" stroke="#626C7A" stroke-width="2" stroke-linecap="round" stroke-linejoin="round"/>
</svg>
