<svg width="174" height="30" viewBox="0 0 174 30" fill="none" xmlns="http://www.w3.org/2000/svg">
<path fill-rule="evenodd" clip-rule="evenodd" d="M113.633 29.9992H158.881C167.196 29.9992 174 23.2493 174 14.9996C174 6.7499 167.196 0 158.881 0H113.633C105.318 0 98.5148 6.7499 98.5148 14.9996C98.5148 23.2493 105.318 29.9992 113.633 29.9992ZM12.2955 13.439V21.0368H0.00195312V8.96771H8.75897H11.8314H12.2794C11.424 10.4622 10.5663 11.9483 9.7101 13.439H10.2668H12.2955ZM50.0123 9.01254L43.6094 18.0084H49.8668V20.9783H37.8229L44.1983 11.9962H38.0519V9.01254H50.0123ZM85.179 17.7318L87.5637 21.0255H84.044L81.6448 17.7318H78.8756V21.0255H75.8239V8.96771H86.9679V17.7432L85.179 17.7318ZM78.8756 14.7147H83.9154V11.9962H78.8756V14.7147ZM65.3039 21.0368V17.7432H59.2418V21.0368H56.1901V8.96771H68.3557V21.0368H65.3039ZM59.2418 14.7147H65.3039V11.9954H59.2418V14.7147ZM28.6639 21.0368V17.7432H22.6017V21.0368H19.5492V8.96771H31.7156V21.0368H28.6639ZM22.6017 14.7147H28.6639V11.9954H22.6017V14.7147ZM7.01216 11.9962H5.4055H3.0537V13.439H5.4055H6.17973L7.0114 11.9962H7.01216ZM3.0537 18.0539H9.24373V16.4668H3.0537V18.0539ZM119.136 18.0076V16.7069V11.2661V8.96695H122.187V21.0361C118.132 21.0361 115.071 21.0361 111.015 21.0361V16.7069H114.068V18.0076H119.136ZM138.769 18.0076V11.9954H132.707V18.0076H138.769ZM129.655 21.0361V8.96695H141.821V21.0361C137.765 21.0361 133.711 21.0361 129.655 21.0361ZM153.841 22.8482V21.0361H149.289V8.96695H161.455V21.0361H156.894V22.8482H153.841ZM153.841 18.0076V16.1955H156.894V18.0076H158.403V11.9954H152.341V18.0076H153.841Z" fill="#9139AE"/>
</svg>
