<svg width="271" height="45" viewBox="0 0 271 45" fill="none" xmlns="http://www.w3.org/2000/svg">
<g clip-path="url(#clip0_1_508)">
<path fill-rule="evenodd" clip-rule="evenodd" d="M176.98 44.9989H247.452C260.402 44.9989 270.998 34.874 270.998 22.4994C270.998 10.1249 260.402 0 247.452 0H176.98C164.029 0 153.433 10.1249 153.433 22.4994C153.433 34.874 164.029 44.9989 176.98 44.9989ZM19.1488 20.1585V31.5553H0.00195312V13.4516H13.6408H18.426H19.1237C17.7914 15.6933 16.4556 17.9225 15.1221 20.1585H15.9892H19.1488ZM77.8916 13.5188L67.9193 27.0125H77.665V31.4675H58.907L68.8365 17.9943H59.2637V13.5188H77.8916ZM132.663 26.5977L136.377 31.5382H130.895L127.158 26.5977H122.845V31.5382H118.092V13.4516H135.449V26.6148L132.663 26.5977ZM122.845 22.0721H130.695V17.9943H122.845V22.0721ZM101.708 31.5553V26.6148H92.2663V31.5553H87.5133V13.4516H106.461V31.5553H101.708ZM92.2663 22.0721H101.708V17.9932H92.2663V22.0721ZM44.642 31.5553V26.6148H35.2004V31.5553H30.4462V13.4516H49.3951V31.5553H44.642ZM35.2004 22.0721H44.642V17.9932H35.2004V22.0721ZM10.9202 17.9943H8.41782H4.75496V20.1585H8.41782H9.62366L10.919 17.9943H10.9202ZM4.75496 27.0809H14.3958V24.7001H4.75496V27.0809ZM185.549 27.0114V25.0603V16.8991V13.4504H190.302V31.5541C183.986 31.5541 179.218 31.5541 172.902 31.5541V25.0603H177.656V27.0114H185.549ZM216.128 27.0114V17.9932H206.687V27.0114H216.128ZM201.933 31.5541V13.4504H220.881V31.5541C214.565 31.5541 208.249 31.5541 201.933 31.5541ZM239.602 34.2723V31.5541H232.512V13.4504H251.46V31.5541H244.357V34.2723H239.602ZM239.602 27.0114V24.2933H244.357V27.0114H246.707V17.9932H237.266V27.0114H239.602Z" fill="#9139AE"/>
</g>
<defs>
<clipPath id="clip0_1_508">
<rect width="271" height="45" fill="white"/>
</clipPath>
</defs>
</svg>
