<svg width="100" height="18" viewBox="0 0 100 18" fill="none" xmlns="http://www.w3.org/2000/svg">
<g clip-path="url(#clip0_51_2884)">
<path fill-rule="evenodd" clip-rule="evenodd" d="M65.3064 17.9995H91.3108C96.0897 17.9995 99.9997 13.9496 99.9997 8.99977C99.9997 4.04994 96.0897 0 91.3108 0H65.3064C60.5275 0 56.6175 4.04994 56.6175 8.99977C56.6175 13.9496 60.5275 17.9995 65.3064 17.9995ZM7.06622 8.06342V12.6221H0.000976562V5.38063H5.03374H6.7995H7.05698C6.56536 6.27732 6.07243 7.169 5.58037 8.06342H5.90034H7.06622ZM28.7425 5.40752L25.0627 10.805H28.6589V12.587H21.7372L25.4012 7.19772H21.8688V5.40752H28.7425ZM48.9533 10.6391L50.3238 12.6153H48.301L46.9221 10.6391H45.3307V12.6153H43.5768V5.38063H49.9814V10.6459L48.9533 10.6391ZM45.3307 8.82882H48.2271V7.19772H45.3307V8.82882ZM37.5309 12.6221V10.6459H34.0469V12.6221H32.293V5.38063H39.2847V12.6221H37.5309ZM34.0469 8.82882H37.5309V7.19727H34.0469V8.82882ZM16.4733 12.6221V10.6459H12.9893V12.6221H11.235V5.38063H18.2272V12.6221H16.4733ZM12.9893 8.82882H16.4733V7.19727H12.9893V8.82882ZM4.02983 7.19772H3.10646H1.75485V8.06342H3.10646H3.55142L4.02983 7.19772ZM1.75485 10.8324H5.31234V9.88006H1.75485V10.8324ZM68.4686 10.8046V10.0241V6.75963V5.38017H70.2225V12.6217C67.8916 12.6217 66.1325 12.6217 63.8016 12.6217V10.0241H65.5559V10.8046H68.4686ZM79.7524 10.8046V7.19727H76.2684V10.8046H79.7524ZM74.5141 12.6217V5.38017H81.5063V12.6217C79.1754 12.6217 76.845 12.6217 74.5141 12.6217ZM88.4144 13.7089V12.6217H85.7979V5.38017H92.7901V12.6217H90.1687V13.7089H88.4144ZM88.4144 10.8046V9.71731H90.1687V10.8046H91.0362V7.19727H87.5522V10.8046H88.4144Z" fill="white"/>
</g>
<defs>
<clipPath id="clip0_51_2884">
<rect width="100" height="18" fill="white"/>
</clipPath>
</defs>
</svg>
