<svg width="14" height="20" viewBox="0 0 14 20" fill="none" xmlns="http://www.w3.org/2000/svg">
<path d="M1.16675 7.50008C1.16675 4.75022 1.16675 3.37529 2.02102 2.52102C2.87529 1.66675 4.25022 1.66675 7.00008 1.66675C9.74994 1.66675 11.1249 1.66675 11.9791 2.52102C12.8334 3.37529 12.8334 4.75022 12.8334 7.50008V12.5001C12.8334 15.2499 12.8334 16.6249 11.9791 17.4791C11.1249 18.3334 9.74994 18.3334 7.00008 18.3334C4.25022 18.3334 2.87529 18.3334 2.02102 17.4791C1.16675 16.6249 1.16675 15.2499 1.16675 12.5001L1.16675 7.50008Z" stroke="#626C7A" stroke-width="1.5" stroke-linecap="round"/>
<path d="M6.16675 15.8335H7.83341" stroke="#626C7A" stroke-width="1.5" stroke-linecap="round" stroke-linejoin="round"/>
<path d="M4.5 1.66675L4.57417 2.11176C4.7349 3.07616 4.81527 3.55836 5.14599 3.85178C5.49098 4.15787 5.98012 4.16675 7 4.16675C8.01988 4.16675 8.50902 4.15787 8.85401 3.85178C9.18473 3.55836 9.2651 3.07616 9.42583 2.11176L9.5 1.66675" stroke="#626C7A" stroke-width="1.5" stroke-linejoin="round"/>
</svg>
