<svg width="20" height="20" viewBox="0 0 20 20" fill="none" xmlns="http://www.w3.org/2000/svg">
<path d="M3.1481 9.95205C2.35808 8.5745 1.97662 7.44965 1.74661 6.30943C1.40643 4.62306 2.18492 2.97575 3.47457 1.92464C4.01962 1.4804 4.64444 1.63218 4.96675 2.21041L5.6944 3.51584C6.27116 4.55055 6.55953 5.06791 6.50234 5.61641C6.44514 6.16491 6.05622 6.61163 5.27839 7.50509L3.1481 9.95205ZM3.1481 9.95205C4.74717 12.7403 7.25661 15.2511 10.0481 16.8521M10.0481 16.8521C11.4257 17.6421 12.5505 18.0235 13.6907 18.2536C15.3771 18.5937 17.0244 17.8152 18.0755 16.5256C18.5198 15.9805 18.368 15.3557 17.7898 15.0334L16.4843 14.3058C15.4496 13.729 14.9323 13.4406 14.3838 13.4978C13.8353 13.555 13.3885 13.9439 12.4951 14.7218L10.0481 16.8521Z" stroke="white" stroke-width="1.5" stroke-linejoin="round"/>
<path opacity="0.4" d="M11.6667 5.69329C12.8528 6.19695 13.8032 7.14739 14.3069 8.33341M12.2118 1.66675C15.1594 2.51738 17.4827 4.84052 18.3334 7.7881" stroke="white" stroke-width="1.5" stroke-linecap="round"/>
</svg>
