<svg width="20" height="18" viewBox="0 0 20 18" fill="none" xmlns="http://www.w3.org/2000/svg">
<path d="M9.98794 11.8403L12.6891 14.9113C13.6898 16.0491 14.1902 16.618 14.714 16.4795C15.2378 16.341 15.4174 15.5923 15.7766 14.0949L17.7692 5.78825C18.3224 3.48194 18.599 2.32878 17.9841 1.76C17.3692 1.19122 16.3034 1.61437 14.1718 2.46068L4.28238 6.38707C2.57752 7.06395 1.72509 7.40239 1.67097 7.98403C1.66543 8.04353 1.66534 8.10344 1.6707 8.16295C1.72303 8.74477 2.57443 9.08605 4.27721 9.7686C5.04873 10.0779 5.4345 10.2325 5.71109 10.5286C5.74218 10.5619 5.77208 10.5964 5.80073 10.632C6.05557 10.9486 6.16432 11.3642 6.38182 12.1954L6.78886 13.7508C7.0005 14.5596 7.10632 14.964 7.38348 15.0191C7.66064 15.0743 7.90195 14.7389 8.38458 14.0683L9.98794 11.8403ZM9.98794 11.8403L9.7231 11.5642C9.4217 11.2501 9.271 11.0931 9.271 10.8979C9.271 10.7027 9.4217 10.5457 9.7231 10.2315L12.7006 7.12841" stroke="#626C7A" stroke-width="1.5" stroke-linecap="round" stroke-linejoin="round"/>
</svg>
