<svg width="18" height="18" viewBox="0 0 18 18" fill="none" xmlns="http://www.w3.org/2000/svg">
<path d="M1.08325 9.00016C1.08325 5.26821 1.08325 3.40223 2.24262 2.24287C3.40199 1.0835 5.26797 1.0835 8.99992 1.0835C12.7319 1.0835 14.5978 1.0835 15.7572 2.24287C16.9166 3.40223 16.9166 5.26821 16.9166 9.00016C16.9166 12.7321 16.9166 14.5981 15.7572 15.7575C14.5978 16.9168 12.7319 16.9168 8.99992 16.9168C5.26797 16.9168 3.40199 16.9168 2.24262 15.7575C1.08325 14.5981 1.08325 12.7321 1.08325 9.00016Z" stroke="#626C7A" stroke-width="1.5" stroke-linejoin="round"/>
<path d="M7.64364 8.93865C8.05368 8.9973 8.43363 8.71244 8.49228 8.3024C8.55093 7.89236 8.26608 7.51241 7.85604 7.45376L7.64364 8.93865ZM13.5832 7.66667C13.9974 7.66667 14.3332 7.33088 14.3332 6.91667C14.3332 6.50245 13.9974 6.16667 13.5832 6.16667V7.66667ZM10.9998 4C10.9998 3.58579 10.6641 3.25 10.2498 3.25C9.83562 3.25 9.49984 3.58579 9.49984 4H10.9998ZM9.49984 11.0833C9.49984 12.28 8.52979 13.25 7.33317 13.25V14.75C9.35821 14.75 10.9998 13.1084 10.9998 11.0833H9.49984ZM7.33317 13.25C6.13655 13.25 5.1665 12.28 5.1665 11.0833H3.6665C3.6665 13.1084 5.30813 14.75 7.33317 14.75V13.25ZM5.1665 11.0833C5.1665 9.88672 6.13655 8.91667 7.33317 8.91667V7.41667C5.30813 7.41667 3.6665 9.05829 3.6665 11.0833H5.1665ZM7.33317 8.91667C7.439 8.91667 7.54262 8.9242 7.64364 8.93865L7.85604 7.45376C7.68488 7.42928 7.51028 7.41667 7.33317 7.41667V8.91667ZM13.5832 6.16667C12.9697 6.16667 12.3033 5.91276 11.7932 5.48675C11.2838 5.06127 10.9998 4.52727 10.9998 4H9.49984C9.49984 5.08356 10.0772 6.00789 10.8317 6.63804C11.5856 7.26766 12.5858 7.66667 13.5832 7.66667V6.16667ZM9.49984 4V11.0833H10.9998V4H9.49984Z" fill="#626C7A"/>
</svg>
