<svg width="251" height="217" viewBox="0 0 251 217" fill="none" xmlns="http://www.w3.org/2000/svg">
<path fill-rule="evenodd" clip-rule="evenodd" d="M88.1545 82.8932L70.1797 84.116C75.852 82.4424 81.8693 82.1006 88.1545 82.8932ZM122.926 67.6823C116.308 69.0974 109.654 70.2185 103.431 72.5216C109.06 68.5139 115.933 67.8387 122.926 67.6823ZM121.83 98.5421C123.511 101.475 121.864 101.911 120.402 102.399C115.46 104.051 110.615 100.784 105.999 97.6156C102.634 95.3065 99.2932 92.4731 96.9986 88.4615C96.1232 86.9322 95.7484 85.537 97.8676 85.7921C103.654 86.4898 109.387 88.0652 114.964 91.7742C117.621 93.5412 120.024 95.7652 121.83 98.5421ZM105.417 75.9979C108.916 73.725 113.144 73.0966 117.278 72.3167C135.144 68.9483 153.736 72.4373 172.778 79.5101C185.497 84.2353 197.983 90.2453 210.41 96.7392C211.545 97.3306 212.681 97.977 213.84 97.8892C215.142 97.7898 215.811 97.2713 214.305 95.7226C213.935 95.3404 213.229 95.1847 213.726 94.5631C215.441 92.4179 213.642 90.6162 212.158 88.8914C209.375 85.6537 205.915 83.8106 202.656 81.7006C193.527 75.7879 184.272 70.2257 174.74 65.977C165.891 62.0334 156.941 59.5183 147.994 57.2851C142.298 55.8637 136.507 54.5067 131.228 55.3793C127.721 55.959 124.046 54.9225 120.6 55.4444C113.994 56.4455 107.441 57.5285 101.506 60.3026C96.6211 62.5865 92.8773 66.2985 90.524 71.6714C89.7488 73.4434 88.5235 74.223 86.7409 74.2442C81.9374 74.3028 77.1581 74.5453 72.4365 74.8625C64.7539 75.3766 57.4737 77.3551 50.3763 79.6723C39.0562 83.3681 28.4931 88.45 19.7942 96.8329C14.6815 101.76 10.0063 107.089 8.87007 115.616C8.57079 117.861 8.66933 120.098 10.0409 122.417C10.6311 123.417 11.3022 124.048 12.2893 124.052C13.4556 124.056 13.0681 123.181 13.0514 122.193C12.9347 115.413 17.0173 112.23 20.6131 108.699C30.5219 98.9673 42.9714 93.9115 56.0789 90.0968C66.1093 87.1781 76.5335 85.5179 87.413 85.3548C88.2771 85.3417 89.1747 84.7989 89.5498 86.7642C90.8563 93.6114 94.4702 99.3373 99.2513 104.202C106.631 111.711 114.591 116.691 123.364 115.384C128.078 114.682 129.735 111.559 129.563 105.902C129.127 91.4889 119.209 81.2597 108.555 77.7777C107.6 77.4672 106.647 77.1562 105.695 76.8459C105.602 76.5626 105.51 76.28 105.417 75.9979Z" fill="#FFE102"/>
<path fill-rule="evenodd" clip-rule="evenodd" d="M223.402 111.051C229.013 110.397 234.76 110.676 240.703 112.323C234.937 111.899 229.169 111.474 223.402 111.051ZM218.647 80.5031C222.331 86.8323 226.762 92.5655 231.025 98.4346C231.662 99.3117 232.741 100.052 232.308 101.373C231.892 102.641 230.78 102.207 229.916 102.026C225.211 101.049 220.846 101.696 216.34 101.739C213.494 101.765 210.49 101.152 207.587 101.285C203.119 101.491 198.551 101.296 194.001 101.133C191.696 101.05 189.716 102.243 187.104 101.088C184.542 99.9555 183.281 101.435 183.298 105.703C183.306 107.882 184.169 110.309 186.622 111.007C188.639 111.581 190.692 111.99 192.672 112.112C205.774 112.92 218.856 113.604 231.955 114.394C234.895 114.571 237.876 114.981 240.842 115.325C246.235 115.95 247.443 114.295 246.617 108.007C245.976 103.126 243.898 99.1177 240.448 95.4683C233.806 88.4428 227.297 81.2406 221.626 73.1386C220.49 71.5148 219.52 69.758 218.428 68.0947C217.165 66.1678 216.167 66.054 215.526 67.9632C214.102 72.1933 214.352 73.2103 218.647 80.5031Z" fill="#FFE102"/>
</svg>
